<svg xmlns="http://www.w3.org/2000/svg" version="1.1" xmlns:xlink="http://www.w3.org/1999/xlink" xmlns:svgjs="http://svgjs.dev/svgjs" width="1000" height="925" viewBox="0 0 1000 925"><g transform="matrix(1,0,0,1,0.6734836307476826,0.3744948614900636)"><svg viewBox="0 0 267 247" data-background-color="#ffffff" preserveAspectRatio="xMidYMid meet" height="925" width="1000" xmlns="http://www.w3.org/2000/svg" xmlns:xlink="http://www.w3.org/1999/xlink"><g id="tight-bounds" transform="matrix(1,0,0,1,-0.1798200670283734,-0.10000024950059583)"><svg viewBox="0 0 267.3596316448574 247.2" height="247.2" width="267.3596316448574"><g><svg viewBox="0 0 395.52 365.69673364105495" height="247.2" width="267.3596316448574"><g transform="matrix(1,0,0,1,0,260.01408725653425)"><svg viewBox="0 0 395.52 105.68264638452067" height="105.68264638452067" width="395.52"><g><svg viewBox="0 0 395.52 105.68264638452067" height="105.68264638452067" width="395.52"><g><svg viewBox="0 0 395.52 68.04253909843607" height="68.04253909843607" width="395.52"><g transform="matrix(1,0,0,1,0,0)"><svg width="395.52" viewBox="3.8299999237060547 -36.040000915527344 212.2899932861328 36.53000259399414" height="68.04253909843607" data-palette-color="#ffa96a"><path d="M3.83-35.55L9.59-35.55 18.87-6.54 28.15-35.55 33.91-35.55 33.91 0 29.44 0 29.44-13.84 29.86-27.71 20.56 0 17.14 0 7.89-27.61 8.3-13.84 8.3 0 3.83 0 3.83-35.55ZM42.89-35.55L50.17-17.7 57.44-35.55 62.5-35.55 52.39-13.26 52.39 0 47.92 0 47.92-13.26 37.81-35.55 42.89-35.55ZM82.27-8.98L82.27-8.98Q82.27-11.65 80.83-13.06 79.39-14.48 75.63-15.82 71.87-17.16 69.88-18.64 67.89-20.12 66.9-22.01 65.91-23.9 65.91-26.34L65.91-26.34Q65.91-30.57 68.73-33.3 71.55-36.04 76.12-36.04L76.12-36.04Q79.24-36.04 81.68-34.63 84.13-33.23 85.44-30.74 86.76-28.25 86.76-25.27L86.76-25.27 82.27-25.27Q82.27-28.56 80.68-30.37 79.1-32.18 76.12-32.18L76.12-32.18Q73.41-32.18 71.92-30.66 70.43-29.15 70.43-26.42L70.43-26.42Q70.43-24.17 72.04-22.66 73.65-21.14 77.02-19.95L77.02-19.95Q82.27-18.21 84.53-15.67 86.79-13.13 86.79-9.03L86.79-9.03Q86.79-4.71 83.98-2.11 81.17 0.49 76.34 0.49L76.34 0.49Q73.24 0.49 70.61-0.87 67.99-2.22 66.49-4.68 64.99-7.13 64.99-10.3L64.99-10.3 69.48-10.3Q69.48-7.01 71.32-5.18 73.16-3.34 76.34-3.34L76.34-3.34Q79.29-3.34 80.78-4.86 82.27-6.37 82.27-8.98ZM113.42-35.55L113.42-31.69 104.07-31.69 104.07 0 99.6 0 99.6-31.69 90.28-31.69 90.28-35.55 113.42-35.55ZM135.73 0L129.41-14.38 123.16-14.38 123.16 0 118.67 0 118.67-35.55 128.63-35.55Q133.85-35.55 136.54-32.82 139.22-30.1 139.22-24.85L139.22-24.85Q139.22-21.56 137.77-19.1 136.32-16.65 133.66-15.41L133.66-15.41 140.54-0.29 140.54 0 135.73 0ZM123.16-31.69L123.16-18.21 128.58-18.21Q131.39-18.21 133.06-20.02 134.73-21.83 134.73-24.85L134.73-24.85Q134.73-31.69 128.53-31.69L128.53-31.69 123.16-31.69ZM162.24-20.26L162.24-16.43 149.67-16.43 149.67-3.83 164.32-3.83 164.32 0 145.2 0 145.2-35.55 164.07-35.55 164.07-31.69 149.67-31.69 149.67-20.26 162.24-20.26ZM187.07-20.26L187.07-16.43 174.5-16.43 174.5-3.83 189.15-3.83 189.15 0 170.03 0 170.03-35.55 188.9-35.55 188.9-31.69 174.5-31.69 174.5-20.26 187.07-20.26ZM216.12-35.55L216.12-31.69 206.77-31.69 206.77 0 202.3 0 202.3-31.69 192.98-31.69 192.98-35.55 216.12-35.55Z" opacity="1" transform="matrix(1,0,0,1,0,0)" fill="#ffa96a" class="undefined-text-0" data-fill-palette-color="primary" id="text-0"></path></svg></g></svg></g><g transform="matrix(1,0,0,1,0,84.10574955863845)"><svg viewBox="0 0 395.52 21.57689682588221" height="21.57689682588221" width="395.52"><g transform="matrix(1,0,0,1,0,0)"><svg width="395.52" viewBox="4.550000190734863 -35.25 817.4700317382812 44.599998474121094" height="21.57689682588221" data-palette-color="#e65728"><path d="M25.25-11.8L31.55 0 28.15 0 22.2-11.3Q21-13.6 19.4-14.45 17.8-15.3 15-15.3L15-15.3 7.65-15.3 7.65 0 4.55 0 4.55-35.25 18.65-35.25Q24.2-35.25 27.2-32.73 30.2-30.2 30.2-25.35L30.2-25.35Q30.2-21.25 27.83-18.78 25.45-16.3 21.05-15.75L21.05-15.75Q22.35-15.35 23.38-14.38 24.4-13.4 25.25-11.8L25.25-11.8ZM7.6-17.95L18.45-17.95Q27.15-17.95 27.15-25.4L27.15-25.4Q27.15-29.05 25-30.83 22.85-32.6 18.45-32.6L18.45-32.6 7.6-32.6 7.6-17.95ZM58.05-13.1L58.05-11.75 39.7-11.75Q39.85-7.2 42.1-4.78 44.35-2.35 48.5-2.35L48.5-2.35Q52.9-2.35 56.45-5.35L56.45-5.35 57.65-2.95Q56.05-1.45 53.57-0.55 51.1 0.35 48.5 0.35L48.5 0.35Q42.95 0.35 39.75-3 36.55-6.35 36.55-12.2L36.55-12.2Q36.55-15.95 37.97-18.82 39.4-21.7 41.97-23.28 44.55-24.85 47.9-24.85L47.9-24.85Q52.65-24.85 55.35-21.75 58.05-18.65 58.05-13.1L58.05-13.1ZM47.9-22.35Q44.4-22.35 42.3-20.15 40.2-17.95 39.8-14L39.8-14 55.25-14Q55.15-18 53.25-20.18 51.35-22.35 47.9-22.35L47.9-22.35ZM75.8-24.85Q79-24.85 81.45-23.28 83.9-21.7 85.25-18.82 86.6-15.95 86.6-12.15L86.6-12.15Q86.6-8.4 85.25-5.58 83.9-2.75 81.45-1.2 79 0.35 75.8 0.35L75.8 0.35Q72.85 0.35 70.7-0.93 68.55-2.2 67.45-4.65L67.45-4.65 67.45 9 64.4 9 64.4-24.25 67.45-24.25 67.45-19.85Q68.55-22.3 70.7-23.58 72.85-24.85 75.8-24.85L75.8-24.85ZM75.35-2.35Q79.2-2.35 81.32-4.93 83.45-7.5 83.45-12.15L83.45-12.15Q83.45-16.9 81.32-19.55 79.2-22.2 75.4-22.2L75.4-22.2Q71.6-22.2 69.52-19.6 67.45-17 67.45-12.25L67.45-12.25Q67.45-7.5 69.5-4.93 71.55-2.35 75.35-2.35L75.35-2.35ZM102.69 0.35Q99.34 0.35 96.82-1.2 94.29-2.75 92.89-5.6 91.49-8.45 91.49-12.25L91.49-12.25Q91.49-16.05 92.89-18.9 94.29-21.75 96.82-23.3 99.34-24.85 102.69-24.85L102.69-24.85Q105.99-24.85 108.54-23.3 111.09-21.75 112.47-18.9 113.84-16.05 113.84-12.25L113.84-12.25Q113.84-8.45 112.47-5.6 111.09-2.75 108.54-1.2 105.99 0.35 102.69 0.35L102.69 0.35ZM102.64-2.35Q106.49-2.35 108.59-4.9 110.69-7.45 110.69-12.25L110.69-12.25Q110.69-16.95 108.57-19.58 106.44-22.2 102.69-22.2L102.69-22.2Q98.89-22.2 96.79-19.58 94.69-16.95 94.69-12.25L94.69-12.25Q94.69-7.45 96.74-4.9 98.79-2.35 102.64-2.35L102.64-2.35ZM132.74-24.85L132.99-22.2 130.84-22Q126.89-21.6 125.12-19.45 123.34-17.3 123.34-14.2L123.34-14.2 123.34 0 120.29 0 120.29-24.25 123.29-24.25 123.29-20Q124.39-22.25 126.42-23.38 128.44-24.5 131.44-24.75L131.44-24.75 132.74-24.85ZM148.89-2.25Q149.99-2.25 151.04-2.4L151.04-2.4 150.89 0.15Q149.79 0.3 148.54 0.3L148.54 0.3Q144.44 0.3 142.34-1.93 140.24-4.15 140.24-8L140.24-8 140.24-21.8 135.44-21.8 135.44-24.25 140.24-24.25 140.24-31.75 143.29-31.75 143.29-24.25 150.39-24.25 150.39-21.8 143.29-21.8 143.29-8.4Q143.29-5.35 144.71-3.8 146.14-2.25 148.89-2.25L148.89-2.25ZM176.78-3.1L185.53-24.25 188.63-24.25 174.33 9 171.23 9 175.18 0 164.78-24.25 168.03-24.25 176.78-3.1ZM202.83 0.35Q199.48 0.35 196.96-1.2 194.43-2.75 193.03-5.6 191.63-8.45 191.63-12.25L191.63-12.25Q191.63-16.05 193.03-18.9 194.43-21.75 196.96-23.3 199.48-24.85 202.83-24.85L202.83-24.85Q206.13-24.85 208.68-23.3 211.23-21.75 212.61-18.9 213.98-16.05 213.98-12.25L213.98-12.25Q213.98-8.45 212.61-5.6 211.23-2.75 208.68-1.2 206.13 0.35 202.83 0.35L202.83 0.35ZM202.78-2.35Q206.63-2.35 208.73-4.9 210.83-7.45 210.83-12.25L210.83-12.25Q210.83-16.95 208.71-19.58 206.58-22.2 202.83-22.2L202.83-22.2Q199.03-22.2 196.93-19.58 194.83-16.95 194.83-12.25L194.83-12.25Q194.83-7.45 196.88-4.9 198.93-2.35 202.78-2.35L202.78-2.35ZM237.03-24.25L240.08-24.25 240.08 0 237.08 0 237.08-4.35Q235.93-2.05 233.8-0.85 231.68 0.35 228.98 0.35L228.98 0.35Q224.68 0.35 222.5-2.02 220.33-4.4 220.33-9.05L220.33-9.05 220.33-24.25 223.38-24.25 223.38-9.25Q223.38-5.7 224.8-4.03 226.23-2.35 229.28-2.35L229.28-2.35Q232.78-2.35 234.9-4.58 237.03-6.8 237.03-10.5L237.03-10.5 237.03-24.25ZM260.53-24.85L260.78-22.2 258.63-22Q254.68-21.6 252.9-19.45 251.13-17.3 251.13-14.2L251.13-14.2 251.13 0 248.08 0 248.08-24.25 251.08-24.25 251.08-20Q252.18-22.25 254.2-23.38 256.23-24.5 259.23-24.75L259.23-24.75 260.53-24.85ZM288.97-24.85Q297.72-24.85 297.72-15.45L297.72-15.45 297.72 0 294.67 0 294.67-15.25Q294.67-18.85 293.22-20.5 291.77-22.15 288.62-22.15L288.62-22.15Q285.02-22.15 282.85-19.95 280.67-17.75 280.67-14.05L280.67-14.05 280.67 0 277.62 0 277.62-24.25 280.62-24.25 280.62-20.1Q281.77-22.4 283.95-23.63 286.12-24.85 288.97-24.85L288.97-24.85ZM325.62-13.1L325.62-11.75 307.27-11.75Q307.42-7.2 309.67-4.78 311.92-2.35 316.07-2.35L316.07-2.35Q320.47-2.35 324.02-5.35L324.02-5.35 325.22-2.95Q323.62-1.45 321.14-0.55 318.67 0.35 316.07 0.35L316.07 0.35Q310.52 0.35 307.32-3 304.12-6.35 304.12-12.2L304.12-12.2Q304.12-15.95 305.54-18.82 306.97-21.7 309.54-23.28 312.12-24.85 315.47-24.85L315.47-24.85Q320.22-24.85 322.92-21.75 325.62-18.65 325.62-13.1L325.62-13.1ZM315.47-22.35Q311.97-22.35 309.87-20.15 307.77-17.95 307.37-14L307.37-14 322.82-14Q322.72-18 320.82-20.18 318.92-22.35 315.47-22.35L315.47-22.35ZM335.02 0L331.97 0 331.97-24.25 335.02-24.25 335.02 0ZM331.52-30.65L331.52-34.5 335.52-34.5 335.52-30.65 331.52-30.65ZM360.86-24.25L363.91-24.25 363.91-1.4Q363.91 3.9 361.29 6.63 358.66 9.35 353.51 9.35L353.51 9.35Q347.41 9.35 343.01 6L343.01 6 344.21 3.6Q346.66 5.3 348.74 5.98 350.81 6.65 353.56 6.65L353.56 6.65Q357.21 6.65 359.06 4.7 360.91 2.75 360.91-1.1L360.91-1.1 360.91-5.85Q359.86-3.4 357.69-2.08 355.51-0.75 352.41-0.75L352.41-0.75Q349.21-0.75 346.74-2.25 344.26-3.75 342.89-6.5 341.51-9.25 341.51-12.8L341.51-12.8Q341.51-16.35 342.89-19.1 344.26-21.85 346.74-23.35 349.21-24.85 352.41-24.85L352.41-24.85Q355.46-24.85 357.61-23.58 359.76-22.3 360.86-19.85L360.86-19.85 360.86-24.25ZM352.81-3.45Q356.61-3.45 358.74-5.95 360.86-8.45 360.86-12.8L360.86-12.8Q360.86-17.15 358.71-19.68 356.56-22.2 352.81-22.2L352.81-22.2Q349.01-22.2 346.86-19.7 344.71-17.2 344.71-12.8L344.71-12.8Q344.71-8.4 346.86-5.93 349.01-3.45 352.81-3.45L352.81-3.45ZM383.26-24.85Q392.01-24.85 392.01-15.45L392.01-15.45 392.01 0 388.96 0 388.96-15.25Q388.96-18.85 387.51-20.5 386.06-22.15 382.91-22.15L382.91-22.15Q379.31-22.15 377.14-19.95 374.96-17.75 374.96-14.05L374.96-14.05 374.96 0 371.91 0 371.91-35.25 374.96-35.25 374.96-20.2Q376.11-22.45 378.29-23.65 380.46-24.85 383.26-24.85L383.26-24.85ZM411.36-24.85Q414.56-24.85 417.01-23.3 419.46-21.75 420.81-18.93 422.16-16.1 422.16-12.35L422.16-12.35Q422.16-8.55 420.81-5.68 419.46-2.8 417.01-1.23 414.56 0.35 411.36 0.35L411.36 0.35Q408.41 0.35 406.26-0.93 404.11-2.2 403.01-4.65L403.01-4.65 403.01 0 399.96 0 399.96-35.25 403.01-35.25 403.01-19.85Q404.11-22.3 406.26-23.58 408.41-24.85 411.36-24.85L411.36-24.85ZM410.96-2.35Q414.76-2.35 416.88-5 419.01-7.65 419.01-12.35L419.01-12.35Q419.01-17.05 416.88-19.63 414.76-22.2 410.91-22.2L410.91-22.2Q407.11-22.2 405.06-19.6 403.01-17 403.01-12.25L403.01-12.25Q403.01-7.5 405.08-4.93 407.16-2.35 410.96-2.35L410.96-2.35ZM438.26 0.35Q434.91 0.35 432.38-1.2 429.86-2.75 428.46-5.6 427.06-8.45 427.06-12.25L427.06-12.25Q427.06-16.05 428.46-18.9 429.86-21.75 432.38-23.3 434.91-24.85 438.26-24.85L438.26-24.85Q441.56-24.85 444.11-23.3 446.66-21.75 448.03-18.9 449.41-16.05 449.41-12.25L449.41-12.25Q449.41-8.45 448.03-5.6 446.66-2.75 444.11-1.2 441.56 0.35 438.26 0.35L438.26 0.35ZM438.21-2.35Q442.06-2.35 444.16-4.9 446.26-7.45 446.26-12.25L446.26-12.25Q446.26-16.95 444.13-19.58 442.01-22.2 438.26-22.2L438.26-22.2Q434.46-22.2 432.36-19.58 430.26-16.95 430.26-12.25L430.26-12.25Q430.26-7.45 432.31-4.9 434.36-2.35 438.21-2.35L438.21-2.35ZM472.45-24.25L475.5-24.25 475.5 0 472.5 0 472.5-4.35Q471.35-2.05 469.23-0.85 467.1 0.35 464.4 0.35L464.4 0.35Q460.1 0.35 457.93-2.02 455.75-4.4 455.75-9.05L455.75-9.05 455.75-24.25 458.8-24.25 458.8-9.25Q458.8-5.7 460.23-4.03 461.65-2.35 464.7-2.35L464.7-2.35Q468.2-2.35 470.33-4.58 472.45-6.8 472.45-10.5L472.45-10.5 472.45-24.25ZM495.95-24.85L496.2-22.2 494.05-22Q490.1-21.6 488.33-19.45 486.55-17.3 486.55-14.2L486.55-14.2 486.55 0 483.5 0 483.5-24.25 486.5-24.25 486.5-20Q487.6-22.25 489.63-23.38 491.65-24.5 494.65-24.75L494.65-24.75 495.95-24.85ZM511.8-24.85Q520.55-24.85 520.55-15.45L520.55-15.45 520.55 0 517.5 0 517.5-15.25Q517.5-18.85 516.05-20.5 514.6-22.15 511.45-22.15L511.45-22.15Q507.85-22.15 505.67-19.95 503.5-17.75 503.5-14.05L503.5-14.05 503.5 0 500.45 0 500.45-35.25 503.5-35.25 503.5-20.2Q504.65-22.45 506.82-23.65 509-24.85 511.8-24.85L511.8-24.85ZM538.14 0.35Q534.79 0.35 532.27-1.2 529.75-2.75 528.35-5.6 526.95-8.45 526.95-12.25L526.95-12.25Q526.95-16.05 528.35-18.9 529.75-21.75 532.27-23.3 534.79-24.85 538.14-24.85L538.14-24.85Q541.45-24.85 544-23.3 546.54-21.75 547.92-18.9 549.29-16.05 549.29-12.25L549.29-12.25Q549.29-8.45 547.92-5.6 546.54-2.75 544-1.2 541.45 0.35 538.14 0.35L538.14 0.35ZM538.1-2.35Q541.95-2.35 544.04-4.9 546.14-7.45 546.14-12.25L546.14-12.25Q546.14-16.95 544.02-19.58 541.89-22.2 538.14-22.2L538.14-22.2Q534.35-22.2 532.25-19.58 530.14-16.95 530.14-12.25L530.14-12.25Q530.14-7.45 532.2-4.9 534.25-2.35 538.1-2.35L538.1-2.35ZM565.39 0.35Q562.04 0.35 559.52-1.2 556.99-2.75 555.59-5.6 554.19-8.45 554.19-12.25L554.19-12.25Q554.19-16.05 555.59-18.9 556.99-21.75 559.52-23.3 562.04-24.85 565.39-24.85L565.39-24.85Q568.69-24.85 571.24-23.3 573.79-21.75 575.17-18.9 576.54-16.05 576.54-12.25L576.54-12.25Q576.54-8.45 575.17-5.6 573.79-2.75 571.24-1.2 568.69 0.35 565.39 0.35L565.39 0.35ZM565.34-2.35Q569.19-2.35 571.29-4.9 573.39-7.45 573.39-12.25L573.39-12.25Q573.39-16.95 571.27-19.58 569.14-22.2 565.39-22.2L565.39-22.2Q561.59-22.2 559.49-19.58 557.39-16.95 557.39-12.25L557.39-12.25Q557.39-7.45 559.44-4.9 561.49-2.35 565.34-2.35L565.34-2.35ZM600.59-35.25L603.64-35.25 603.64 0 600.59 0 600.59-4.65Q599.49-2.2 597.34-0.93 595.19 0.35 592.24 0.35L592.24 0.35Q589.04 0.35 586.59-1.23 584.14-2.8 582.79-5.68 581.44-8.55 581.44-12.35L581.44-12.35Q581.44-16.1 582.79-18.93 584.14-21.75 586.59-23.3 589.04-24.85 592.24-24.85L592.24-24.85Q595.19-24.85 597.34-23.58 599.49-22.3 600.59-19.85L600.59-19.85 600.59-35.25ZM592.64-2.35Q596.44-2.35 598.51-4.93 600.59-7.5 600.59-12.25L600.59-12.25Q600.59-17 598.54-19.6 596.49-22.2 592.69-22.2L592.69-22.2Q588.84-22.2 586.74-19.63 584.64-17.05 584.64-12.35L584.64-12.35Q584.64-7.6 586.74-4.98 588.84-2.35 592.64-2.35L592.64-2.35ZM635.63-24.85Q638.83-24.85 641.28-23.28 643.73-21.7 645.08-18.82 646.43-15.95 646.43-12.15L646.43-12.15Q646.43-8.4 645.08-5.58 643.73-2.75 641.28-1.2 638.83 0.35 635.63 0.35L635.63 0.35Q632.68 0.35 630.53-0.93 628.38-2.2 627.28-4.65L627.28-4.65 627.28 9 624.23 9 624.23-24.25 627.28-24.25 627.28-19.85Q628.38-22.3 630.53-23.58 632.68-24.85 635.63-24.85L635.63-24.85ZM635.18-2.35Q639.03-2.35 641.16-4.93 643.28-7.5 643.28-12.15L643.28-12.15Q643.28-16.9 641.16-19.55 639.03-22.2 635.23-22.2L635.23-22.2Q631.43-22.2 629.36-19.6 627.28-17 627.28-12.25L627.28-12.25Q627.28-7.5 629.33-4.93 631.38-2.35 635.18-2.35L635.18-2.35ZM665.33-24.85L665.58-22.2 663.43-22Q659.48-21.6 657.71-19.45 655.93-17.3 655.93-14.2L655.93-14.2 655.93 0 652.88 0 652.88-24.25 655.88-24.25 655.88-20Q656.98-22.25 659.01-23.38 661.03-24.5 664.03-24.75L664.03-24.75 665.33-24.85ZM678.98 0.35Q675.63 0.35 673.1-1.2 670.58-2.75 669.18-5.6 667.78-8.45 667.78-12.25L667.78-12.25Q667.78-16.05 669.18-18.9 670.58-21.75 673.1-23.3 675.63-24.85 678.98-24.85L678.98-24.85Q682.28-24.85 684.83-23.3 687.38-21.75 688.75-18.9 690.13-16.05 690.13-12.25L690.13-12.25Q690.13-8.45 688.75-5.6 687.38-2.75 684.83-1.2 682.28 0.35 678.98 0.35L678.98 0.35ZM678.93-2.35Q682.78-2.35 684.88-4.9 686.98-7.45 686.98-12.25L686.98-12.25Q686.98-16.95 684.85-19.58 682.73-22.2 678.98-22.2L678.98-22.2Q675.18-22.2 673.08-19.58 670.98-16.95 670.98-12.25L670.98-12.25Q670.98-7.45 673.03-4.9 675.08-2.35 678.93-2.35L678.93-2.35ZM707.98-24.85Q711.18-24.85 713.63-23.3 716.08-21.75 717.43-18.93 718.78-16.1 718.78-12.35L718.78-12.35Q718.78-8.55 717.43-5.68 716.08-2.8 713.63-1.23 711.18 0.35 707.98 0.35L707.98 0.35Q705.03 0.35 702.88-0.93 700.73-2.2 699.63-4.65L699.63-4.65 699.63 0 696.58 0 696.58-35.25 699.63-35.25 699.63-19.85Q700.73-22.3 702.88-23.58 705.03-24.85 707.98-24.85L707.98-24.85ZM707.58-2.35Q711.38-2.35 713.5-5 715.63-7.65 715.63-12.35L715.63-12.35Q715.63-17.05 713.5-19.63 711.38-22.2 707.53-22.2L707.53-22.2Q703.73-22.2 701.68-19.6 699.63-17 699.63-12.25L699.63-12.25Q699.63-7.5 701.7-4.93 703.78-2.35 707.58-2.35L707.58-2.35ZM728.27 0L725.22 0 725.22-35.25 728.27-35.25 728.27 0ZM756.27-13.1L756.27-11.75 737.92-11.75Q738.07-7.2 740.32-4.78 742.57-2.35 746.72-2.35L746.72-2.35Q751.12-2.35 754.67-5.35L754.67-5.35 755.87-2.95Q754.27-1.45 751.8-0.55 749.32 0.35 746.72 0.35L746.72 0.35Q741.17 0.35 737.97-3 734.77-6.35 734.77-12.2L734.77-12.2Q734.77-15.95 736.2-18.82 737.62-21.7 740.2-23.28 742.77-24.85 746.12-24.85L746.12-24.85Q750.87-24.85 753.57-21.75 756.27-18.65 756.27-13.1L756.27-13.1ZM746.12-22.35Q742.62-22.35 740.52-20.15 738.42-17.95 738.02-14L738.02-14 753.47-14Q753.37-18 751.47-20.18 749.57-22.35 746.12-22.35L746.12-22.35ZM788.82-24.85Q796.87-24.85 796.87-15.45L796.87-15.45 796.87 0 793.82 0 793.82-15.25Q793.82-18.9 792.52-20.53 791.22-22.15 788.37-22.15L788.37-22.15Q785.12-22.15 783.19-19.95 781.27-17.75 781.27-14L781.27-14 781.27 0 778.22 0 778.22-15.25Q778.22-18.9 776.92-20.53 775.62-22.15 772.77-22.15L772.77-22.15Q769.52-22.15 767.59-19.95 765.67-17.75 765.67-14L765.67-14 765.67 0 762.62 0 762.62-24.25 765.62-24.25 765.62-20.25Q766.67-22.5 768.64-23.68 770.62-24.85 773.22-24.85L773.22-24.85Q779.07-24.85 780.67-20.05L780.67-20.05Q781.72-22.3 783.87-23.58 786.02-24.85 788.82-24.85L788.82-24.85ZM812.67 0.35Q806.92 0.35 803.27-2.9L803.27-2.9 804.42-5.25Q806.37-3.65 808.32-2.98 810.27-2.3 812.82-2.3L812.82-2.3Q815.77-2.3 817.34-3.35 818.92-4.4 818.92-6.3L818.92-6.3Q818.92-7.9 817.87-8.88 816.82-9.85 814.52-10.35L814.52-10.35 810.42-11.3Q807.47-12 805.79-13.73 804.12-15.45 804.12-17.8L804.12-17.8Q804.12-20.95 806.57-22.9 809.02-24.85 813.12-24.85L813.12-24.85Q815.67-24.85 817.89-24.03 820.12-23.2 821.57-21.65L821.57-21.65 820.42-19.3Q818.72-20.8 816.94-21.5 815.17-22.2 813.12-22.2L813.12-22.2Q810.37-22.2 808.82-21.1 807.27-20 807.27-18.05L807.27-18.05Q807.27-16.45 808.24-15.45 809.22-14.45 811.27-13.95L811.27-13.95 815.42-12.95Q822.02-11.45 822.02-6.45L822.02-6.45Q822.02-3.35 819.49-1.5 816.97 0.35 812.67 0.35L812.67 0.35Z" opacity="1" transform="matrix(1,0,0,1,0,0)" fill="#e65728" class="undefined-text-1" data-fill-palette-color="secondary" id="text-1"></path></svg></g></svg></g></svg></g></svg></g><g transform="matrix(1,0,0,1,83.81616683193526,0)"><svg viewBox="0 0 227.88766633612946 227.88766633612946" height="227.88766633612946" width="227.88766633612946"><g><svg></svg></g><g id="icon-0"><svg viewBox="0 0 227.88766633612946 227.88766633612946" height="227.88766633612946" width="227.88766633612946"><g><path d="M0 113.944c0-62.929 51.014-113.944 113.944-113.944 62.929 0 113.944 51.014 113.944 113.944 0 62.929-51.014 113.944-113.944 113.944-62.929 0-113.944-51.014-113.944-113.944zM113.944 221.752c59.541 0 107.808-48.267 107.808-107.808 0-59.541-48.267-107.808-107.808-107.808-59.541 0-107.808 48.267-107.808 107.808 0 59.541 48.267 107.808 107.808 107.808z" data-fill-palette-color="accent" fill="#e65728" stroke="transparent"></path><ellipse rx="112.80439483638408" ry="112.80439483638408" cx="113.94383316806473" cy="113.94383316806473" fill="#e65728" stroke="transparent" stroke-width="0" fill-opacity="1" data-fill-palette-color="accent"></ellipse></g><g transform="matrix(1,0,0,1,47.49430188027068,60.81965760306437)"><svg viewBox="0 0 132.8990625755881 106.24835113000071" height="106.24835113000071" width="132.8990625755881"><g><svg xmlns="http://www.w3.org/2000/svg" data-name="Layer 1" viewBox="1.4688752889633179 11.1899995803833 97.10224914550781 77.62999725341797" x="0" y="0" height="106.24835113000071" width="132.8990625755881" class="icon-s-0" data-fill-palette-color="quaternary" id="s-0"><path d="M34.48 88.82h31a9.27 9.27 0 0 0 9.09-9.39V20.58a9.27 9.27 0 0 0-9.09-9.39h-31a9.27 9.27 0 0 0-9.09 9.39V79.43A9.27 9.27 0 0 0 34.48 88.82Zm18.13-4.1H47.39a2.27 2.27 0 1 1 0-4.55h5.21a2.27 2.27 0 1 1 0 4.55ZM32.36 24.58A0.59 0.59 0 0 1 33 24H67a0.59 0.59 0 0 1 0.59 0.59V75.46a0.59 0.59 0 0 1-0.59 0.59H33a0.59 0.59 0 0 1-0.59-0.59ZM84.75 42a15.11 15.11 0 0 1 0 16 2.8 2.8 0 0 1-4.34 0.43l-0.16-0.16a2.76 2.76 0 0 1-0.34-3.42 9.32 9.32 0 0 0 0-9.7 2.76 2.76 0 0 1 0.34-3.42l0.16-0.16A2.8 2.8 0 0 1 84.75 42Zm8.15-8.41a26.65 26.65 0 0 1 0 32.87 2.83 2.83 0 0 1-4.21 0.23l-0.09-0.09a2.81 2.81 0 0 1-0.23-3.73 20.78 20.78 0 0 0 0-25.72 2.81 2.81 0 0 1 0.2-3.69l0.08-0.08A2.83 2.83 0 0 1 92.9 33.57Zm-72.8 11.6a9.32 9.32 0 0 0 0 9.7 2.76 2.76 0 0 1-0.34 3.42l-0.16 0.16A2.8 2.8 0 0 1 15.25 58a15.11 15.11 0 0 1 0-16 2.8 2.8 0 0 1 4.34-0.43l0.16 0.16A2.76 2.76 0 0 1 20.09 45.17ZM11.43 33.42a2.81 2.81 0 0 1 0.23 3.73 20.78 20.78 0 0 0 0 25.72 2.81 2.81 0 0 1-0.2 3.69l-0.08 0.08a2.83 2.83 0 0 1-4.24-0.2 26.65 26.65 0 0 1 0-32.87 2.83 2.83 0 0 1 4.21-0.23ZM38.16 44.24a4.51 4.51 0 1 1 4.51 4.51A4.51 4.51 0 0 1 38.16 44.24Zm14.67 0a4.51 4.51 0 1 1 4.51 4.51A4.51 4.51 0 0 1 52.83 44.24ZM49.93 58.48c-7 0-9.26 2.08-10.54 1.76s2.87-7.67 10.54-7.67 11.82 7.35 10.54 7.67S57 58.48 49.93 58.48Z" fill="#ffffff" data-fill-palette-color="quaternary"></path></svg></g></svg></g></svg></g></svg></g><g></g></svg></g><defs></defs></svg><rect width="267.3596316448574" height="247.2" fill="none" stroke="none" visibility="hidden"></rect></g></svg></g></svg>